<?xml version="1.0" standalone="no"?><!DOCTYPE svg PUBLIC "-//W3C//DTD SVG 1.1//EN" "http://www.w3.org/Graphics/SVG/1.1/DTD/svg11.dtd"><svg t="1587982964652" class="icon" viewBox="0 0 1069 1024" version="1.1" xmlns="http://www.w3.org/2000/svg" p-id="12251" xmlns:xlink="http://www.w3.org/1999/xlink" width="208.7890625" height="200"><defs><style type="text/css"></style></defs><path d="M386.685315 0h535.15338l1.467972 1.050256c-178.841958 0.346107-357.695851 0.035804-536.549744 0.143217L386.685315 0zM146.725594 1022.842331c103.832168-0.083543 207.67627-0.011935 311.520373-0.035804l0.107413 1.193473H146.761399l-0.035805-1.157669z" p-id="12252"></path><path d="M227.774359 54.613333C273.83049 21.434779 329.995338 2.410816 386.756923 1.193473c178.853893-0.107413 357.707786 0.20289 536.549744-0.143217 36.365128 0.787692 72.240932 15.407739 98.676363 40.422937 29.15655 26.960559 46.53352 65.975198 47.368951 105.670117v3.795245c-36.329324 0.035804-72.658648-0.083543-108.987972 0.059673 0.071608 132.66648 0.011935 265.33296 0.02387 397.999441-0.083543 70.940047 0.190956 141.892028-0.131282 212.82014-1.33669 2.005035-1.658928 4.380047-1.826014 6.731189-7.268252 68.899207-41.270303 134.349277-92.780606 180.572494-41.508998 37.582471-94.284382 62.5738-149.721212 70.605874-18.474965 2.852401-37.212494 3.293986-55.878415 3.079161H458.245967c-103.844103 0.023869-207.688205-0.047739-311.520373 0.035804-43.704988-0.310303-86.479068-21.625734-113.678321-55.735198-20.121958-24.740699-31.638974-56.09324-33.047273-87.911236v-6.134452c35.923543-0.035804 71.859021 0.083543 107.782564-0.047739-0.047739-177.612681 0-355.213427-0.023869-532.814172 0.918974-19.907133 0.107413-39.838135 0.537063-59.745268 0.704149-30.015851 6.122517-59.924289 16.135757-88.245408 19.262657-55.031049 55.961958-103.665082 103.342844-137.595525m67.180606 199.942564c-15.180979 3.496876-25.576131 20.217436-21.745082 35.374546 2.983683 15.288392 19.417809 26.172867 34.670397 22.819207 15.682238-2.542098 27.067972-19.167179 23.762051-34.73007-2.625641-16.434126-20.623217-28.058555-36.687366-23.463683m148.157762 0.095478c-11.636364 1.169604-22.007646 9.917762-25.206154 21.16028-3.031422 9.881958-0.346107 21.243823 6.766993 28.750769 5.740606 6.325408 14.309744 9.762611 22.831143 9.571655 107.054545-0.035804 214.109091 0.011935 321.163636-0.023869 8.748159 0.023869 17.412774-3.950396 22.974359-10.717389 6.408951-7.483077 8.545268-18.284009 5.668998-27.688579-2.756923-9.58359-10.729324-17.412774-20.324849-20.098088-5.048392-1.551515-10.383217-1.10993-15.58676-1.157669H625.415758c-60.75972 0.131282-121.54331-0.274499-182.303031 0.20289m-0.083543 151.583031c-10.729324 1.1338-20.420326 8.652681-24.275245 18.713659-3.55655 8.783963-2.458555 19.250723 2.768858 27.16345 4.66648 7.232448 12.603077 12.280839 21.16028 13.283357 4.773893 0.548998 9.58359 0.22676 14.369417 0.298368 101.851002 0.011935 203.702005-0.011935 305.553007 0.011935 6.373147 0.143217 13.032727 0.059674 18.856877-2.876271 11.528951-5.227413 18.725594-18.355618 16.839906-30.887086-1.527646-14.02331-14.321678-25.683543-28.428531-25.874499-47.774732-0.119347-95.549464-0.011935-143.324196-0.047739-61.165501 0.143217-122.366807-0.286434-183.520373 0.214826m-148.074219 1.08606c-15.228718 3.496876-25.611935 20.300979-21.733147 35.493893 3.067226 15.240653 19.465548 26.065455 34.706201 22.69986 15.658368-2.577902 27.020233-19.202984 23.714312-34.742005-2.637576-16.434126-20.623217-28.034685-36.687366-23.451748m-0.047739 151.583031c-15.216783 3.532681-25.564196 20.312914-21.685408 35.493892 3.079161 15.240653 19.489417 26.05352 34.718135 22.675991 15.658368-2.577902 27.008298-19.191049 23.702378-34.73007-2.625641-16.446061-20.670956-28.058555-36.735105-23.439813m148.133893 0.095477c-10.753193 1.1338-20.48 8.67655-24.311049 18.785268-4.081678 10.096783-1.909557 22.329883 5.334825 30.445502 5.77641 6.755058 14.691655 10.478695 23.547226 10.24 106.982937-0.023869 213.965874 0.011935 320.960746-0.02387 8.748159 0.059674 17.448578-3.902657 23.034033-10.66965 6.444755-7.506946 8.593007-18.355618 5.692867-27.795991-2.780793-9.535851-10.717389-17.341166-20.265175-20.014545-5.048392-1.587319-10.383217-1.1338-15.574825-1.181539H625.379953c-60.771655 0.143217-121.567179-0.286434-182.338834 0.214825M294.919161 711.668065c-15.216783 3.508811-25.576131 20.324848-21.697343 35.493893 3.079161 15.228718 19.441678 26.02965 34.658462 22.687925 15.694172-2.554033 27.091841-19.214918 23.750116-34.777808-2.64951-16.422191-20.659021-28.010816-36.711235-23.40401m148.169697 0.083543c-8.032075 0.871235-15.58676 5.239347-20.408392 11.719907-5.609324 7.304056-7.447273 17.293427-4.833566 26.125128 2.577902 9.201678 9.881958 16.911515 18.940419 19.966807 5.740606 2.100513 11.946667 1.635058 17.949837 1.658928h305.541072c6.540233-0.011935 13.354965 0.489324 19.525222-2.148252 11.564755-4.43972 19.501352-16.660886 18.737529-29.037203-0.310303-15.049697-13.653333-28.309184-28.714965-28.440466-47.762797-0.119347-95.537529-0.011935-143.300326-0.047739-61.141632 0.143217-122.295198-0.274499-183.43683 0.20289z" p-id="12253"></path></svg>