<?xml version="1.0" standalone="no"?><!DOCTYPE svg PUBLIC "-//W3C//DTD SVG 1.1//EN" "http://www.w3.org/Graphics/SVG/1.1/DTD/svg11.dtd"><svg t="1590479020763" class="icon" viewBox="0 0 1024 1024" version="1.1" xmlns="http://www.w3.org/2000/svg" p-id="1253" xmlns:xlink="http://www.w3.org/1999/xlink" width="200" height="200"><defs><style type="text/css"></style></defs><path d="M113.242 99h495.516C633.192 99 653 116.909 653 139s-19.808 40-44.242 40H113.242C88.808 179 69 161.091 69 139s19.808-40 44.242-40z m0 373h495.516C633.192 472 653 489.909 653 512s-19.808 40-44.242 40H113.242C88.808 552 69 534.091 69 512s19.808-40 44.242-40z m0 373h495.516C633.192 845 653 862.909 653 885s-19.808 40-44.242 40H113.242C88.808 925 69 907.091 69 885s19.808-40 44.242-40zM858.755 91.193L990.782 319.87c11.046 19.132 4.49 43.595-14.641 54.64-19.132 11.047-43.595 4.492-54.641-14.64L862 256.813V920c0 22.091-17.909 40-40 40s-40-17.909-40-40V107c0-22.091 17.909-40 40-40 16.477 0 30.627 9.963 36.755 24.193z" p-id="1254"></path></svg>